<?xml version="1.0" standalone="no"?>
<!DOCTYPE svg PUBLIC "-//W3C//DTD SVG 20010904//EN"
 "http://www.w3.org/TR/2001/REC-SVG-20010904/DTD/svg10.dtd">
<svg version="1.0" xmlns="http://www.w3.org/2000/svg"
 width="1148.000000pt" height="1148.000000pt" viewBox="0 0 1148.000000 1148.000000"
 preserveAspectRatio="xMidYMid meet">
<metadata>
Created by potrace 1.11, written by Peter Selinger 2001-2013
</metadata>
<g transform="translate(0.000000,1148.000000) scale(0.100000,-0.100000)"
fill="#000000" stroke="none">
<path d="M6893 10178 c-140 -8 -289 -35 -453 -85 -683 -205 -1222 -725 -1445
-1396 -71 -212 -101 -367 -112 -577 -3 -63 -6 -116 -7 -117 -1 -1 -456 -5
-1012 -8 -555 -3 -1038 -8 -1074 -11 -197 -17 -493 -131 -705 -271 -119 -79
-351 -305 -440 -428 -32 -44 -64 -85 -72 -92 -8 -6 -45 -15 -81 -18 -333 -33
-607 -157 -840 -380 -206 -196 -337 -431 -398 -710 -15 -70 -18 -152 -20 -666
-3 -570 -3 -587 17 -626 30 -61 55 -68 254 -68 153 0 173 2 205 21 58 33 61
54 66 479 8 762 11 790 68 912 72 151 177 276 303 357 63 41 191 101 198 94 2
-2 -2 -53 -9 -113 -46 -404 74 -846 319 -1177 35 -47 68 -94 73 -105 9 -15 -7
-80 -74 -304 -153 -511 -292 -1003 -312 -1099 -33 -162 -22 -291 53 -605 13
-55 47 -197 75 -315 232 -974 274 -1127 328 -1200 72 -96 166 -166 280 -207
l66 -24 551 2 c302 1 584 6 625 10 105 12 201 60 288 148 142 142 190 311 146
521 -21 105 -195 798 -320 1281 l-46 175 137 385 c170 479 186 520 201 526 14
5 254 -44 614 -125 l255 -57 1 -180 c1 -99 5 -624 8 -1166 3 -543 9 -1017 12
-1055 8 -97 66 -213 148 -298 62 -64 160 -129 212 -140 16 -4 40 -9 54 -12 36
-9 1144 -13 1271 -4 88 5 116 11 170 37 131 62 229 169 290 314 l30 74 4 705
c2 388 4 1015 5 1394 l2 690 65 75 c86 100 199 272 261 396 136 272 196 501
201 765 2 69 4 186 6 260 2 74 4 264 5 423 0 158 3 287 5 287 3 0 55 -75 117
-167 141 -212 205 -297 259 -349 199 -187 475 -253 754 -181 108 28 441 138
543 179 217 89 391 275 466 498 42 127 44 171 45 887 l1 481 153 60 c83 33
361 144 617 246 818 325 831 331 855 383 30 63 5 136 -58 170 -30 17 -92 18
-872 21 -462 2 -841 5 -843 7 -1 1 13 38 33 83 64 147 103 331 98 472 -8 212
-143 405 -343 490 -37 15 -86 25 -150 30 -120 9 -1963 8 -2127 -2z m2077 -565
c0 -49 -29 -145 -65 -218 -39 -80 -117 -166 -199 -220 -31 -21 -56 -41 -56
-44 0 -6 222 -280 296 -366 l34 -40 -3 -850 c-2 -612 -6 -858 -15 -877 -18
-43 -82 -108 -131 -133 -25 -12 -143 -56 -261 -96 -199 -67 -221 -73 -301 -73
-79 -1 -89 1 -128 29 -58 39 -134 140 -345 455 -98 146 -180 267 -181 268 -4
4 -693 234 -767 257 l-48 14 -1 -32 c-6 -197 -8 -446 -9 -1082 -2 -817 -2
-820 -61 -1009 -69 -223 -182 -407 -361 -591 l-118 -120 0 -1452 0 -1453 -550
0 -550 0 0 1380 c0 759 -2 1380 -5 1380 -3 0 -148 32 -323 71 -174 39 -324 72
-332 74 -54 11 -626 139 -675 150 -242 57 -438 96 -445 89 -4 -5 -72 -187
-150 -404 -78 -217 -161 -449 -185 -515 -24 -66 -82 -228 -129 -359 l-86 -240
125 -490 c68 -270 160 -633 204 -806 59 -232 77 -317 68 -322 -16 -10 -949
-10 -965 0 -6 5 -50 168 -97 363 -47 195 -102 419 -121 499 -152 621 -155 638
-159 765 -3 105 -4 101 80 380 44 147 232 777 298 1000 35 121 73 253 82 293
l18 74 -34 26 c-227 176 -386 444 -434 731 -14 86 -15 334 -1 396 53 239 155
431 312 591 80 80 100 97 180 151 141 96 317 163 494 188 82 12 290 14 1427
15 l1131 0 5 398 c4 358 6 406 25 484 61 255 169 484 311 663 71 89 228 247
306 306 204 157 520 287 769 318 34 4 526 8 1094 10 l1032 2 0 -28z"/>
<path d="M7804 8802 c-158 -55 -226 -229 -149 -382 95 -187 390 -176 478 18
63 142 -19 323 -167 367 -64 19 -99 18 -162 -3z"/>
</g>
</svg>
